<svg xmlns="http://www.w3.org/2000/svg" width="600" height="220" viewBox="0 0 600 220"><rect x="1" y="1" width="598" height="218" rx="14" fill="#F0EEE6" stroke="#D97757" stroke-width="2"/><text x="28" y="40" font-family="-apple-system,'Segoe UI',Helvetica,Arial,sans-serif" font-size="18" font-weight="600" fill="#D97757">Activity — last 31 days</text><rect x="30.0" y="163.0" width="13.5" height="9.0" rx="3" fill="#D97757"><title>2026-09-01: 18</title></rect><rect x="47.5" y="169.0" width="13.5" height="3.0" rx="3" fill="#D97757"><title>2026-09-02: 5</title></rect><rect x="65.1" y="137.8" width="13.5" height="34.2" rx="3" fill="#D97757"><title>2026-09-03: 68</title></rect><rect x="82.6" y="146.4" width="13.5" height="25.6" rx="3" fill="#D97757"><title>2026-09-04: 51</title></rect><rect x="100.2" y="151.9" width="13.5" height="20.1" rx="3" fill="#D97757"><title>2026-09-05: 40</title></rect><rect x="117.7" y="149.4" width="13.5" height="22.6" rx="3" fill="#D97757"><title>2026-09-06: 45</title></rect><rect x="135.3" y="121.8" width="13.5" height="50.2" rx="3" fill="#D97757"><title>2026-09-07: 100</title></rect><rect x="152.8" y="155.4" width="13.5" height="16.6" rx="3" fill="#D97757"><title>2026-09-08: 33</title></rect><rect x="170.4" y="142.9" width="13.5" height="29.1" rx="3" fill="#D97757"><title>2026-09-09: 58</title></rect><rect x="187.9" y="138.8" width="13.5" height="33.2" rx="3" fill="#D97757"><title>2026-09-10: 66</title></rect><rect x="205.5" y="66.0" width="13.5" height="106.0" rx="3" fill="#D97757"><title>2026-09-11: 211</title></rect><rect x="223.0" y="155.4" width="13.5" height="16.6" rx="3" fill="#D97757"><title>2026-09-12: 33</title></rect><rect x="240.6" y="131.3" width="13.5" height="40.7" rx="3" fill="#D97757"><title>2026-09-13: 81</title></rect><rect x="258.1" y="138.8" width="13.5" height="33.2" rx="3" fill="#D97757"><title>2026-09-14: 66</title></rect><rect x="275.7" y="125.3" width="13.5" height="46.7" rx="3" fill="#D97757"><title>2026-09-15: 93</title></rect><rect x="293.2" y="128.8" width="13.5" height="43.2" rx="3" fill="#D97757"><title>2026-09-16: 86</title></rect><rect x="310.8" y="150.9" width="13.5" height="21.1" rx="3" fill="#D97757"><title>2026-09-17: 42</title></rect><rect x="328.3" y="160.4" width="13.5" height="11.6" rx="3" fill="#D97757"><title>2026-09-18: 23</title></rect><rect x="345.9" y="162.0" width="13.5" height="10.0" rx="3" fill="#D97757"><title>2026-09-19: 20</title></rect><rect x="363.4" y="163.0" width="13.5" height="9.0" rx="3" fill="#D97757"><title>2026-09-20: 18</title></rect><rect x="381.0" y="151.4" width="13.5" height="20.6" rx="3" fill="#D97757"><title>2026-09-21: 41</title></rect><rect x="398.5" y="163.5" width="13.5" height="8.5" rx="3" fill="#D97757"><title>2026-09-22: 17</title></rect><rect x="416.1" y="152.4" width="13.5" height="19.6" rx="3" fill="#D97757"><title>2026-09-23: 39</title></rect><rect x="433.6" y="129.3" width="13.5" height="42.7" rx="3" fill="#D97757"><title>2026-09-24: 85</title></rect><rect x="451.2" y="145.9" width="13.5" height="26.1" rx="3" fill="#D97757"><title>2026-09-25: 52</title></rect><rect x="468.7" y="166.5" width="13.5" height="5.5" rx="3" fill="#D97757"><title>2026-09-26: 11</title></rect><rect x="486.3" y="164.0" width="13.5" height="8.0" rx="3" fill="#D97757"><title>2026-09-27: 16</title></rect><rect x="503.8" y="136.8" width="13.5" height="35.2" rx="3" fill="#D97757"><title>2026-09-28: 70</title></rect><rect x="521.4" y="140.4" width="13.5" height="31.6" rx="3" fill="#D97757"><title>2026-09-29: 63</title></rect><rect x="538.9" y="152.4" width="13.5" height="19.6" rx="3" fill="#D97757"><title>2026-09-30: 39</title></rect><rect x="556.5" y="149.4" width="13.5" height="22.6" rx="3" fill="#D97757"><title>2026-10-01: 45</title></rect><text x="28" y="196" font-family="-apple-system,'Segoe UI',Helvetica,Arial,sans-serif" font-size="11" fill="#6B6757">2026-09-01</text><text x="572" y="196" text-anchor="end" font-family="-apple-system,'Segoe UI',Helvetica,Arial,sans-serif" font-size="11" fill="#6B6757">2026-10-01 · peak 211/day</text></svg>